<svg fill="none" height="57" viewBox="0 0 57 57" width="57" xmlns="http://www.w3.org/2000/svg"><path d="m46.794 2.26623c-.4186-.01336-.8105.19594-1.0243.55664l-2.0707 3.36656-8.7459 3.13946c-.5299.19148-.8416.74371-.7303 1.29581l3.2018 15.871c-3.5803.7971-6.5283 3.273-7.9667 6.5639h-12.6557l-3.8565-12.54h2.3602c1.2959 0 2.2132-.953 2.5962-2.1242.2182-.2137.3384-.5076.3384-.8104 0-1.4963-1.1578-2.7743-2.6496-2.9168l-7.37883-.717c-.24046-.0267-.47648-.0267-.7125 0-1.62094.1826-2.93906 1.5764-2.93906 3.2731 0 .3072.12023.5967.33844.8149.40078 1.3671 1.46508 2.4804 2.95687 2.4804h2.70308l3.8653 12.5578c-3.5803.2093-6.44369 3.1929-6.44369 6.8222 0 3.0682 2.04399 5.6777 4.84059 6.5372l-4.2884 6.0028h-2.83219c-.40969-.0045-.79265.2093-1.00195.5655-.20485.3563-.20485.7927 0 1.1489.20929.3563.59226.57 1.00195.5656h3.39328.07125 3.37546c.4097.0044.7927-.2093 1.002-.5656.2048-.3562.2048-.7926 0-1.1489-.2093-.3562-.5923-.57-1.002-.5655h-1.2023l4.1013-5.7401c.3429-.0312.7348-.0802 1.238-.1514.8327-.1158 1.8747-.285 3.0637-.4854 2.3735-.4008 5.3215-.9396 8.2383-1.4873.9218-.1737 1.6477-.3207 2.5472-.4899 2.0529 2.9747 5.4907 4.9341 9.3738 4.9341 1.5141 0 2.9524-.3028 4.275-.8417l3.5492 4.2617h-.9842c-.4097-.0045-.7926.2093-1.0019.5655-.2049.3563-.2049.7927 0 1.1489.2093.3563.5922.57 1.0019.5656h3.2107c.1514.0311.3028.0311.4542 0h3.1751c.4097.0044.7927-.2093 1.002-.5656.2048-.3562.2048-.7926 0-1.1489-.2093-.3562-.5923-.57-1.002-.5655h-2.8856l-4.4576-5.3482c3.0504-2.0529 5.0632-5.5308 5.0632-9.4718 0-6.2834-5.1166-11.4-11.4-11.4-.0668 0-.138.0044-.2048.0044l-3.0415-15.0827 8.1937-2.94352c.2405-.08906.4498-.25382.5834-.47648l2.28-3.705c.2182-.34289.236-.7793.0445-1.14-.187-.3607-.5566-.59672-.9618-.61008zm-38.82685 13.95167c.00446 0 .00891 0 .01336.0044l7.39219.717c.3429.0311.5878.3028.5878.6457 0 .3785-.2761.6546-.6546.6546h-3.7317c-.0668-.0089-.1292-.0178-.1915-.0178-.0579.0044-.1113.0089-.1692.0178h-3.35767c-.57445 0-1.01531-.4409-1.01531-1.0153 0-.619.50765-1.0732 1.12664-1.0064zm31.93335 12.2817c5.0499 0 9.12 4.0701 9.12 9.12 0 3.4378-1.8881 6.4169-4.6847 7.9755-.2761.0267-.5299.1514-.7169.3518-1.1356.5032-2.3914.7927-3.7184.7927-2.752 0-5.2057-1.2202-6.8756-3.1395.9708-.1915 2.1464-.4097 2.9747-.5789 1.1177-.2226 2.0707-.4141 2.7921-.5655.7169-.1514 1.1355-.236 1.425-.3206 1.0108-.2895 2.0083-.717 2.8277-1.4384s1.4161-1.808 1.4161-3.0771c0-2.5071-2.0529-4.56-4.56-4.56h-7.8954c1.572-2.7253 4.511-4.56 7.8954-4.56zm-25.08 6.84h.8773c.1826.0445.3696.0445.5522 0h23.6505c1.2736 0 2.28 1.0064 2.28 2.28 0 .6234-.2048.9797-.6412 1.3671-.4409.3874-1.1489.7259-1.955.9574-.0311.0089-.5566.1336-1.2646.2806-.7036.1469-1.6522.3429-2.7654.5655-2.2221.4409-5.0944.9975-7.9978 1.5452-2.9035.5478-5.8425 1.0822-8.1938 1.4785-1.1756.2004-2.2043.3651-3.0014.4765-.7526.1068-1.287.1558-1.4562.1603-.0222 0-.0445-.0045-.0668-.0045-.04 0-.0757 0-.1068.0045-.0045 0-.009 0-.009 0-2.4848-.0535-4.462-2.0529-4.462-4.5511 0-2.5294 2.0306-4.56 4.56-4.56zm0 2.28c-1.2602 0-2.28 1.0198-2.28 2.28s1.0198 2.28 2.28 2.28c.8149 0 1.5631-.4364 1.9727-1.14h6.0073c.4097.0044.7927-.2093 1.002-.5656.2048-.3562.2048-.7926 0-1.1489-.2093-.3562-.5923-.57-1.002-.5655h-6.0073c-.4052-.7036-1.1578-1.14-1.9727-1.14z" fill="#f8b833"/></svg>